<mxfile host="app.diagrams.net" modified="2023-08-05T16:43:25.208Z" agent="Mozilla/5.0 (X11; Ubuntu; Linux x86_64; rv:109.0) Gecko/20100101 Firefox/115.0" version="21.6.2" etag="FMNhvNROUn1sGWI4zGnu" type="github">
  <diagram name="Page-1" id="pgbQvvDMkWVgytZyrWOZ">
    <mxGraphModel>
      <root>
        <mxCell id="0" />
        <mxCell id="1" parent="0" />
      </root>
    </mxGraphModel>
  </diagram>
</mxfile>
